<svg width="25" height="25" viewBox="0 0 25 25" fill="none" xmlns="http://www.w3.org/2000/svg">
<path d="M12.4998 9.98127C12.0017 9.98145 11.5148 10.1293 11.1008 10.4062C10.6867 10.6831 10.364 11.0765 10.1735 11.5367C9.98305 11.9969 9.93331 12.5033 10.0306 12.9918C10.1279 13.4803 10.3678 13.929 10.7201 14.2812C11.0724 14.6333 11.5212 14.8731 12.0097 14.9702C12.4982 15.0673 13.0046 15.0174 13.4648 14.8267C13.9249 14.6361 14.3182 14.3132 14.5949 13.8991C14.8717 13.4849 15.0193 12.998 15.0193 12.4999C15.0188 11.8319 14.7532 11.1914 14.2808 10.7192C13.8083 10.2469 13.1678 9.98152 12.4998 9.98127ZM18.3884 8.04531C18.2602 7.72038 18.0665 7.42525 17.8195 7.17824C17.5725 6.93124 17.2774 6.73762 16.9525 6.6094C15.9609 6.21796 13.6 6.30579 12.4998 6.30579C11.3996 6.30579 9.04103 6.21465 8.04661 6.6094C7.72167 6.73762 7.42654 6.93124 7.17954 7.17824C6.93253 7.42525 6.73891 7.72038 6.6107 8.04531C6.21973 9.0369 6.30708 11.4002 6.30708 12.4994C6.30708 13.5987 6.21973 15.9591 6.61258 16.954C6.7408 17.2789 6.93442 17.5741 7.18143 17.8211C7.42843 18.0681 7.72356 18.2617 8.0485 18.3899C9.04008 18.7814 11.401 18.6935 12.5017 18.6935C13.6023 18.6935 15.9599 18.7847 16.9544 18.3899C17.2793 18.2617 17.5744 18.0681 17.8214 17.8211C18.0684 17.5741 18.2621 17.2789 18.3903 16.954C18.7845 15.9624 18.6939 13.5991 18.6939 12.4999C18.6939 11.4007 18.7845 9.04068 18.3903 8.04578L18.3884 8.04531ZM12.4998 16.3718C11.734 16.3718 10.9854 16.1447 10.3487 15.7193C9.71192 15.2938 9.21565 14.6891 8.9226 13.9816C8.62954 13.2741 8.55286 12.4956 8.70226 11.7445C8.85166 10.9934 9.22043 10.3035 9.76192 9.76204C10.3034 9.22055 10.9933 8.85178 11.7444 8.70239C12.4955 8.55299 13.274 8.62966 13.9815 8.92272C14.689 9.21578 15.2937 9.71205 15.7192 10.3488C16.1446 10.9855 16.3717 11.7341 16.3717 12.4999C16.3723 13.0085 16.2726 13.5123 16.0782 13.9823C15.8839 14.4524 15.5987 14.8795 15.239 15.2391C14.8794 15.5988 14.4523 15.884 13.9822 16.0783C13.5122 16.2727 13.0084 16.3724 12.4998 16.3718ZM16.5313 9.36932C16.3525 9.36941 16.1777 9.31648 16.0291 9.21723C15.8804 9.11799 15.7645 8.97687 15.696 8.81174C15.6275 8.64661 15.6095 8.46487 15.6444 8.28953C15.6792 8.11419 15.7652 7.95311 15.8916 7.82667C16.018 7.70023 16.179 7.61411 16.3543 7.5792C16.5296 7.54429 16.7114 7.56216 16.8766 7.63055C17.0417 7.69894 17.1829 7.81477 17.2822 7.96341C17.3816 8.11204 17.4346 8.28679 17.4346 8.46556C17.4351 8.58427 17.4121 8.70191 17.3671 8.81174C17.322 8.92156 17.2557 9.02141 17.1719 9.10555C17.0882 9.18969 16.9886 9.25647 16.879 9.30206C16.7694 9.34765 16.6519 9.37114 16.5332 9.37121L16.5313 9.36932ZM20.8102 1.92297H4.18934C3.58823 1.92297 3.01174 2.16176 2.58669 2.58681C2.16164 3.01186 1.92285 3.58835 1.92285 4.18946L1.92285 20.8103C1.92285 21.4114 2.16164 21.9879 2.58669 22.413C3.01174 22.838 3.58823 23.0768 4.18934 23.0768H20.8102C21.4113 23.0768 21.9878 22.838 22.4129 22.413C22.8379 21.9879 23.0767 21.4114 23.0767 20.8103V4.18946C23.0767 3.58835 22.8379 3.01186 22.4129 2.58681C21.9878 2.16176 21.4113 1.92297 20.8102 1.92297ZM20.0018 15.6163C19.9409 16.8265 19.6647 17.8988 18.7812 18.7799C17.8978 19.661 16.8264 19.9429 15.6176 20.0005C14.3706 20.0709 10.6318 20.0709 9.38478 20.0005C8.17457 19.9396 7.10602 19.6629 6.22114 18.7799C5.33627 17.897 5.05815 16.8242 5.00055 15.6163C4.93019 14.3688 4.93019 10.6296 5.00055 9.38348C5.06146 8.17327 5.33438 7.10094 6.22114 6.21985C7.1079 5.33875 8.17929 5.06016 9.38478 5.00256C10.6318 4.9322 14.3706 4.9322 15.6176 5.00256C16.8278 5.06347 17.8997 5.34017 18.7812 6.22315C19.6628 7.10614 19.9442 8.17894 20.0018 9.38915C20.0722 10.6319 20.0722 14.3679 20.0018 15.6163Z" fill="#42AB01"/>
</svg>
