<svg width="86" height="75" viewBox="0 0 86 75" fill="none" xmlns="http://www.w3.org/2000/svg">
<path fill-rule="evenodd" clip-rule="evenodd" d="M3.7109 0.312046C2.69158 0.664154 1.82343 1.31793 1.06777 2.30224C-0.024558 3.72511 0.0263832 2.62415 0.0263832 24.835V44.9661L42.5465 44.9243L85.0666 44.8825L85.1087 24.5871C85.132 13.4245 85.0901 4.3291 85.0161 4.3749C84.942 4.4207 84.7951 4.13612 84.6897 3.74253C84.4566 2.87039 83.6399 1.76843 82.6899 1.04381C81.2158 -0.0805495 84.223 -0.00272724 42.4333 0.00324633C6.20818 0.00839023 4.55201 0.0216645 3.7109 0.312046ZM0.106694 24.7217C0.106694 35.9014 0.126606 40.475 0.150832 34.885C0.175058 29.2953 0.175058 20.1483 0.150832 14.5583C0.126606 8.96857 0.106694 13.542 0.106694 24.7217ZM28.2348 16.2766C27.7329 16.4729 20.6783 23.4578 20.3419 24.0911C20.0375 24.6649 20.0368 25.772 20.3406 26.3478C20.4707 26.5942 22.244 28.4513 24.2815 30.4749C27.4775 33.649 28.0735 34.17 28.6241 34.2713C30.4587 34.6088 32 32.9888 31.5215 31.2264C31.3942 30.7581 30.7198 29.9719 28.6812 27.9159L26.0079 25.2195L28.6812 22.5231C30.7198 20.467 31.3942 19.6808 31.5215 19.2126C32.0516 17.2599 30.1236 15.5375 28.2348 16.2766ZM44.616 16.4387C44.0253 16.7506 43.78 17.1887 40.3432 24.0709C38.2482 28.2665 36.6974 31.5662 36.6974 31.8282C36.6974 32.079 36.8653 32.6119 37.0707 33.0123C37.7281 34.2945 39.1037 34.6932 40.385 33.9731C41.0163 33.6183 41.2218 33.2528 44.6804 26.337C46.7899 22.1189 48.3126 18.881 48.3126 18.6142C48.3126 18.3615 48.1447 17.827 47.9393 17.4266C47.2926 16.1656 45.9116 15.755 44.616 16.4387ZM54.701 16.402C53.975 16.8504 53.6107 17.3178 53.4573 17.9974C53.1865 19.1983 53.4607 19.6302 56.3288 22.5231L59.0021 25.2195L56.3288 27.9159C54.2902 29.9719 53.6158 30.7581 53.4885 31.2264C53.0097 32.9899 54.5546 34.6124 56.3859 34.2689C56.9348 34.1661 57.5423 33.6351 60.7298 30.4726C62.768 28.4503 64.5413 26.5942 64.6707 26.3478C64.9734 25.771 64.972 24.6639 64.668 24.0911C64.3053 23.408 57.2552 16.4652 56.7229 16.2671C56.0231 16.0066 55.2584 16.0577 54.701 16.402ZM0.0572466 52.9723C0.110345 55.7915 0.142536 56.057 0.522686 56.8296C1.0691 57.9397 2.15961 58.9988 3.3125 59.5393L4.25765 59.9823H42.3391C72.1197 59.9823 80.5673 59.9375 81.094 59.777C82.6591 59.3 84.2042 57.8122 84.6657 56.3381C84.781 55.9696 84.9371 55.5972 85.0125 55.5104C85.0878 55.4238 85.1495 54.1171 85.1495 52.6066V49.8604L42.5748 49.9026L0 49.9447L0.0572466 52.9723ZM0.0945813 52.7642C0.0945813 54.3613 0.119471 55.0148 0.150003 54.2162C0.180368 53.4177 0.180368 52.111 0.150003 51.3123C0.119471 50.5139 0.0945813 51.1671 0.0945813 52.7642ZM29.4742 65.0514C29.4144 65.1483 29.0112 66.2876 28.5785 67.583L27.7915 69.9382L24.706 70.0212C21.3452 70.1116 21.1753 70.1591 20.3728 71.2338C19.8559 71.9263 19.9177 73.147 20.509 73.9223C21.3837 75.069 19.9568 74.9992 42.505 74.9992C65.0532 74.9992 63.6263 75.069 64.5009 73.9223C65.0923 73.147 65.1541 71.9263 64.6372 71.2338C63.8349 70.1593 63.6645 70.1116 60.3064 70.0212L57.2232 69.9382L56.3769 67.4493L55.5307 64.9603L42.5569 64.9178C33.541 64.8883 29.5498 64.9291 29.4742 65.0514Z" fill="white"/>
</svg>
