<svg width="75" height="75" viewBox="0 0 75 75" fill="none" xmlns="http://www.w3.org/2000/svg">
<rect width="75" height="75" rx="8.15217" fill="#42AB01"/>
<path d="M13.0435 46.9491C20.8189 53.2209 34.4823 44.2448 36.4248 61.2596C34.5655 56.3017 31.6358 53.1466 23.6355 54.217C32.988 52.9656 35.5797 61.8794 35.5797 61.8794C28.1427 61.5977 18.7902 57.7102 13.0435 46.9491Z" fill="white"/>
<path d="M63.7497 33.3147C57.8828 46.4353 32.5589 35.9755 37.1458 61.3634C39.5992 55.1764 43.6528 49.5228 50.3731 46.7493C45.2528 51.1229 41.8393 56.2431 40.2393 60.51C54.7466 58.5899 64.2568 48.8647 63.7497 33.3147Z" fill="white"/>
<path fill-rule="evenodd" clip-rule="evenodd" d="M35.1666 24.9046C34.7098 24.9046 34.3394 25.275 34.3394 25.7318V30.5387H29.5328C29.0759 30.5387 28.7056 30.909 28.7056 31.3659V35.3455C28.7056 35.8024 29.0759 36.1727 29.5328 36.1727H34.3394V40.9796C34.3394 41.4364 34.7098 41.8068 35.1666 41.8068H39.1463C39.6031 41.8068 39.9735 41.4364 39.9735 40.9796V36.1727H44.7805C45.2374 36.1727 45.6077 35.8024 45.6077 35.3455V31.3659C45.6077 30.909 45.2374 30.5387 44.7805 30.5387H39.9735V25.7318C39.9735 25.275 39.6031 24.9046 39.1463 24.9046H35.1666Z" fill="white"/>
<path d="M60.8253 35.563C60.8304 35.1778 60.826 34.7931 60.8123 34.4092C60.6955 31.1284 59.8979 27.9033 58.4654 24.9402C56.8654 21.6302 54.5171 18.7381 51.6063 16.4924C48.6955 14.2467 45.302 12.7092 41.6944 12.0014C38.0868 11.2936 34.364 11.435 30.8205 12.4144C27.2769 13.3938 24.0099 15.1843 21.2778 17.6442C18.5458 20.1042 16.4236 23.1662 15.0792 26.5879C13.7347 30.0097 13.205 33.6973 13.5318 37.3591C13.8127 40.507 14.72 43.5616 16.1947 46.3451C16.4355 46.7996 16.6914 47.2468 16.9621 47.6861L20.3042 48.1329C19.907 47.3719 19.5415 46.6708 19.2066 46.0108C17.5759 42.7965 16.6718 40.5559 16.3639 37.1064C16.0763 33.884 16.5425 30.6388 17.7256 27.6277C18.9087 24.6166 20.7762 21.922 23.1804 19.7573C25.5847 17.5925 28.4596 16.0169 31.5779 15.155C34.6962 14.2932 37.9723 14.1687 41.147 14.7916C44.3217 15.4144 47.3079 16.7675 49.8694 18.7436C52.4309 20.7198 54.4974 23.2649 55.9055 26.1777C57.204 28.7804 57.7503 31.5059 57.9948 34.4584C58.0736 35.4094 58.1211 36.3841 58.1523 37.3858L60.8253 35.563Z" fill="white"/>
</svg>
