<svg width="25" height="25" viewBox="0 0 25 25" fill="none" xmlns="http://www.w3.org/2000/svg">
<path d="M21.4718 1.92312H3.55479C3.35338 1.92032 3.1534 1.95723 2.96626 2.03173C2.77912 2.10623 2.60849 2.21686 2.46411 2.35731C2.31973 2.49776 2.20443 2.66528 2.1248 2.85029C2.04517 3.03531 2.00276 3.2342 2 3.4356V21.5642C2.00276 21.7656 2.04517 21.9645 2.1248 22.1495C2.20443 22.3345 2.31973 22.502 2.46411 22.6425C2.60849 22.7829 2.77912 22.8936 2.96626 22.9681C3.1534 23.0426 3.35338 23.0795 3.55479 23.0767H21.4718C21.6732 23.0795 21.8732 23.0426 22.0604 22.9681C22.2475 22.8936 22.4181 22.7829 22.5625 22.6425C22.7069 22.502 22.8222 22.3345 22.9018 22.1495C22.9815 21.9645 23.0239 21.7656 23.0266 21.5642V3.4356C23.0239 3.2342 22.9815 3.03531 22.9018 2.85029C22.8222 2.66528 22.7069 2.49776 22.5625 2.35731C22.4181 2.21686 22.2475 2.10623 22.0604 2.03173C21.8732 1.95723 21.6732 1.92032 21.4718 1.92312ZM8.3778 19.6286H5.20476V10.1095H8.3778V19.6286ZM6.79128 8.77687C6.35368 8.77687 5.934 8.60304 5.62457 8.2936C5.31514 7.98417 5.1413 7.5645 5.1413 7.1269C5.1413 6.68929 5.31514 6.26962 5.62457 5.96019C5.934 5.65075 6.35368 5.47692 6.79128 5.47692C7.02365 5.45057 7.25896 5.47359 7.48181 5.54449C7.70466 5.61538 7.91003 5.73255 8.08446 5.88831C8.25889 6.04408 8.39845 6.23493 8.494 6.44838C8.58956 6.66182 8.63895 6.89304 8.63895 7.1269C8.63895 7.36075 8.58956 7.59197 8.494 7.80541C8.39845 8.01886 8.25889 8.20971 8.08446 8.36548C7.91003 8.52124 7.70466 8.63841 7.48181 8.7093C7.25896 8.7802 7.02365 8.80322 6.79128 8.77687ZM19.8219 19.6286H16.6488V14.5201C16.6488 13.2403 16.194 12.4047 15.0412 12.4047C14.6844 12.4073 14.337 12.5192 14.0457 12.7254C13.7545 12.9315 13.5334 13.2219 13.4123 13.5576C13.3296 13.8062 13.2937 14.068 13.3066 14.3297V19.6181H10.1335V10.099H13.3066V11.4422C13.5948 10.9421 14.0141 10.53 14.5191 10.2504C15.0242 9.97087 15.596 9.83439 16.1729 9.8557C18.2882 9.8557 19.8219 11.2201 19.8219 14.1499V19.6286Z" fill="#42AB01"/>
</svg>
