<svg width="25" height="25" viewBox="0 0 25 25" fill="none" xmlns="http://www.w3.org/2000/svg">
<path d="M21.9131 3.0866C21.137 2.3105 20.2031 1.92297 19.1104 1.92297H5.88913C4.79645 1.92297 3.86258 2.3105 3.08648 3.0866C2.31037 3.8627 1.92285 4.79657 1.92285 5.88925V19.1105C1.92285 20.2032 2.31037 21.1371 3.08648 21.9132C3.86258 22.6893 4.79645 23.0768 5.88913 23.0768H8.97449C9.17566 23.0768 9.32707 23.0694 9.42871 23.0556C9.54697 23.0319 9.65371 22.9689 9.73153 22.8767C9.83212 22.7708 9.88294 22.6173 9.88294 22.4161L9.87553 21.4791C9.87129 20.8819 9.86918 20.4097 9.86918 20.0603L9.55153 20.1153C9.35036 20.1524 9.09625 20.1683 8.78814 20.1641C8.46699 20.1581 8.14686 20.1259 7.83098 20.0677C7.49471 20.0056 7.17815 19.864 6.9077 19.6548C6.62446 19.4405 6.41321 19.145 6.30207 18.8077L6.16442 18.4901C6.04841 18.2395 5.90265 18.0038 5.73031 17.7881C5.53337 17.5308 5.33326 17.3572 5.13103 17.265L5.03574 17.1962C4.96929 17.1486 4.90885 17.0932 4.85574 17.031C4.80501 16.9734 4.76325 16.9084 4.73186 16.8383C4.70433 16.7738 4.72762 16.7208 4.80068 16.6795C4.8748 16.6372 5.00715 16.6171 5.20091 16.6171L5.4762 16.6594C5.65937 16.6954 5.88701 16.8055 6.15701 16.9887C6.43024 17.175 6.65849 17.4199 6.82511 17.7055C7.03688 18.0814 7.29099 18.3683 7.58957 18.5663C7.88815 18.7633 8.18885 18.8628 8.49167 18.8628C8.79449 18.8628 9.05601 18.8395 9.2773 18.794C9.4913 18.7497 9.69924 18.68 9.8967 18.5864C9.97929 17.9723 10.2038 17.498 10.5712 17.1676C10.0951 17.121 9.62327 17.0381 9.15978 16.9199C8.70745 16.7956 8.27243 16.6153 7.86486 16.3831C7.43842 16.1509 7.06176 15.8372 6.75629 15.4598C6.463 15.0924 6.2216 14.6106 6.03313 14.0145C5.84572 13.4174 5.75149 12.7281 5.75149 11.9477C5.75149 10.837 6.1136 9.89153 6.83888 9.11014C6.50006 8.2758 6.53183 7.33876 6.93523 6.30219C7.20205 6.21854 7.59698 6.28101 8.12003 6.48748C8.64308 6.69394 9.02637 6.87076 9.26989 7.01688C9.51342 7.16511 9.70824 7.28899 9.85541 7.38958C10.7162 7.15003 11.6058 7.02961 12.4992 7.0317C13.4088 7.0317 14.2897 7.15135 15.1441 7.38958L15.6672 7.05923C16.0695 6.81767 16.4939 6.61488 16.9346 6.4536C17.4216 6.26936 17.7922 6.2196 18.0506 6.30219C18.4635 7.33982 18.4995 8.2758 18.1596 9.11119C18.8849 9.89153 19.2481 10.837 19.2481 11.9488C19.2481 12.7291 19.1538 13.4205 18.9654 14.0209C18.778 14.6223 18.5344 15.104 18.2358 15.4672C17.925 15.8398 17.5468 16.1505 17.1209 16.3831C16.6762 16.6308 16.2442 16.8098 15.826 16.9199C15.3625 17.0385 14.8907 17.1217 14.4146 17.1687C14.8911 17.5816 15.1304 18.2328 15.1304 19.1232V22.4161C15.1304 22.5718 15.1526 22.6978 15.1992 22.7941C15.2206 22.8405 15.2511 22.8822 15.289 22.9166C15.3268 22.9509 15.3712 22.9773 15.4194 22.9942C15.5211 23.0302 15.61 23.0535 15.6884 23.062C15.7667 23.0726 15.8789 23.0758 16.0251 23.0758H19.1104C20.2031 23.0758 21.137 22.6882 21.9131 21.9121C22.6881 21.1371 23.0767 20.2022 23.0767 19.1095V5.88925C23.0767 4.79657 22.6892 3.8627 21.9131 3.0866Z" fill="#42AB01"/>
</svg>
