<svg width="25" height="25" viewBox="0 0 25 25" fill="none" xmlns="http://www.w3.org/2000/svg">
<path d="M12.5994 6.21028C9.16661 6.21028 6.376 9.00089 6.37128 12.4337C6.37128 13.6094 6.70181 14.7568 7.32509 15.7437L7.47147 15.9798L6.84346 18.2746L9.19966 17.656L9.42631 17.793C10.3801 18.3596 11.4756 18.6618 12.5947 18.6618H12.5994C16.0274 18.6618 18.8936 15.8712 18.8936 12.4384C18.8936 10.7763 18.1759 9.21337 17.0001 8.03764C15.8197 6.85718 14.2615 6.21028 12.5994 6.21028ZM16.2588 15.1062C16.103 15.5454 15.3569 15.942 14.9981 15.9939C14.4031 16.0837 13.9404 16.0364 12.7552 15.5265C10.8806 14.7143 9.65296 12.8256 9.55852 12.7028C9.46408 12.58 8.79358 11.6876 8.79358 10.7669C8.79358 9.8461 9.27521 9.3928 9.44992 9.20393C9.6199 9.01506 9.82294 8.96784 9.95043 8.96784C10.0732 8.96784 10.2007 8.96784 10.3093 8.97256C10.4226 8.97728 10.5784 8.93006 10.7295 9.29365C10.8854 9.66667 11.2584 10.5874 11.3056 10.6819C11.3528 10.7763 11.3859 10.8849 11.3198 11.0077C10.9609 11.7254 10.5784 11.6971 10.772 12.0276C11.4945 13.2694 12.2169 13.6991 13.3171 14.2516C13.506 14.346 13.6146 14.3318 13.7232 14.2044C13.8318 14.0816 14.1906 13.6566 14.3134 13.4725C14.4362 13.2836 14.5637 13.3167 14.7337 13.378C14.9036 13.4394 15.8244 13.8927 16.0133 13.9872C16.2021 14.0816 16.3249 14.1288 16.3721 14.2044C16.4146 14.2941 16.4146 14.6718 16.2588 15.1062ZM20.9098 1.92285H4.28894C3.03766 1.92285 2.02246 2.93805 2.02246 4.18934V20.8102C2.02246 22.0615 3.03766 23.0767 4.28894 23.0767H20.9098C22.1611 23.0767 23.1763 22.0615 23.1763 20.8102V4.18934C23.1763 2.93805 22.1611 1.92285 20.9098 1.92285ZM12.5947 19.9225C11.3387 19.9225 10.1063 19.6061 9.01551 19.0112L5.04444 20.0547L6.10685 16.1734C5.45052 15.0401 5.10582 13.7511 5.10582 12.4289C5.11054 8.30206 8.46777 4.94483 12.5947 4.94483C14.5967 4.94483 16.476 5.72393 17.8926 7.14049C19.3044 8.55704 20.1543 10.4363 20.1543 12.4384C20.1543 16.5653 16.7216 19.9225 12.5947 19.9225Z" fill="#42AB01"/>
</svg>
