<svg width="174" height="50" viewBox="0 0 174 50" fill="none" xmlns="http://www.w3.org/2000/svg">
<path d="M-7.62939e-06 31.7325C6.91147 37.3075 19.0567 29.3287 20.7834 44.453C19.1307 40.0459 16.5265 37.2414 9.41512 38.1929C17.7285 37.0806 20.0322 45.0039 20.0322 45.0039C13.4216 44.7535 5.1082 41.2979 -7.62939e-06 31.7325Z" fill="#42AB01"/>
<path d="M45.0724 19.6131C39.8573 31.2759 17.3472 21.9782 21.4244 44.5452C23.6053 39.0457 27.2084 34.0203 33.1821 31.555C28.6307 35.4426 25.5965 39.9939 24.1742 43.7866C37.0696 42.0799 45.5231 33.4353 45.0724 19.6131Z" fill="#42AB01"/>
<path fill-rule="evenodd" clip-rule="evenodd" d="M19.6657 12.1374C19.2596 12.1374 18.9304 12.4666 18.9304 12.8727V17.1455H14.6576C14.2515 17.1455 13.9223 17.4747 13.9223 17.8808V21.4182C13.9223 21.8243 14.2515 22.1535 14.6576 22.1535H18.9304V26.4263C18.9304 26.8324 19.2596 27.1616 19.6657 27.1616H23.2031C23.6092 27.1616 23.9384 26.8324 23.9384 26.4263V22.1535H28.2112C28.6173 22.1535 28.9465 21.8243 28.9465 21.4182V17.8808C28.9465 17.4747 28.6173 17.1455 28.2112 17.1455H23.9384V12.8727C23.9384 12.4666 23.6092 12.1374 23.2031 12.1374H19.6657Z" fill="#2482C6"/>
<path d="M42.473 21.6115C42.4775 21.2692 42.4736 20.9272 42.4614 20.5859C42.3576 17.6697 41.6486 14.8029 40.3753 12.169C38.953 9.22687 36.8656 6.65605 34.2783 4.6599C31.6909 2.66375 28.6745 1.29705 25.4678 0.667914C22.261 0.0387732 18.9518 0.164452 15.802 1.03501C12.6522 1.90557 9.7482 3.49712 7.31968 5.68377C4.89117 7.87041 3.00478 10.5922 1.80975 13.6337C0.614716 16.6752 0.143823 19.9531 0.43432 23.2081C0.684045 26.0062 1.49054 28.7214 2.80134 31.1956C3.01536 31.5996 3.24282 31.9972 3.48349 32.3876L6.45424 32.7848C6.10112 32.1083 5.77624 31.4851 5.47859 30.8985C4.02903 28.0413 3.2254 26.0497 2.95175 22.9834C2.69611 20.1191 3.11049 17.2345 4.16212 14.558C5.21375 11.8814 6.87377 9.48625 9.01087 7.562C11.148 5.63776 13.7035 4.2372 16.4753 3.47111C19.2472 2.70502 22.1592 2.59442 24.9812 3.14806C27.8031 3.70171 30.4575 4.9044 32.7344 6.66101C35.0113 8.41762 36.8482 10.6799 38.0998 13.269C39.254 15.5826 39.7396 18.0052 39.957 20.6296C40.027 21.475 40.0692 22.3414 40.0969 23.2318L42.473 21.6115Z" fill="#2482C6"/>
<path d="M64.9395 20.2703C66.2368 20.2703 67.2188 20.5495 67.8855 21.1081C68.5702 21.6667 69.0386 22.4144 69.2909 23.3513C69.5431 24.2703 69.6693 25.2973 69.6693 26.4324V33.3514C69.6693 33.8198 69.5161 34.2162 69.2098 34.5405C68.9035 34.8468 68.5161 35 68.0477 35C67.5792 35 67.1918 34.8468 66.8855 34.5405C66.5792 34.2162 66.426 33.8198 66.426 33.3514V26.4324C66.426 25.8378 66.354 25.3063 66.2098 24.8378C66.0657 24.3513 65.8044 23.964 65.426 23.6757C65.0476 23.3874 64.5071 23.2432 63.8044 23.2432C63.1197 23.2432 62.5341 23.3874 62.0476 23.6757C61.5612 23.964 61.1918 24.3513 60.9395 24.8378C60.7053 25.3063 60.5882 25.8378 60.5882 26.4324V33.3514C60.5882 33.8198 60.435 34.2162 60.1287 34.5405C59.8224 34.8468 59.435 35 58.9666 35C58.4981 35 58.1107 34.8468 57.8044 34.5405C57.4981 34.2162 57.3449 33.8198 57.3449 33.3514V16.6486C57.3449 16.1802 57.4981 15.7928 57.8044 15.4865C58.1107 15.1622 58.4981 15 58.9666 15C59.435 15 59.8224 15.1622 60.1287 15.4865C60.435 15.7928 60.5882 16.1802 60.5882 16.6486V23.3513L60.1828 23.2703C60.3449 22.964 60.5702 22.6396 60.8585 22.2973C61.1467 21.9369 61.4981 21.6036 61.9125 21.2973C62.3269 20.991 62.7864 20.7477 63.2909 20.5676C63.7954 20.3694 64.3449 20.2703 64.9395 20.2703ZM79.9919 35.2703C78.4604 35.2703 77.127 34.955 75.9919 34.3243C74.8748 33.6757 74.0099 32.8018 73.3973 31.7027C72.8027 30.6036 72.5054 29.3604 72.5054 27.973C72.5054 26.3513 72.8297 24.973 73.4784 23.8378C74.1451 22.6847 75.0099 21.8018 76.073 21.1892C77.1361 20.5766 78.2622 20.2703 79.4514 20.2703C80.3703 20.2703 81.2352 20.4595 82.046 20.8378C82.8748 21.2162 83.6045 21.7387 84.2352 22.4054C84.8658 23.0541 85.3613 23.8108 85.7216 24.6757C86.1 25.5405 86.2892 26.4595 86.2892 27.4324C86.2712 27.8649 86.1 28.2162 85.7757 28.4865C85.4514 28.7568 85.073 28.8919 84.6406 28.8919H74.3162L73.5054 26.1892H83.4243L82.8297 26.7297V26C82.7937 25.4775 82.6045 25.009 82.2622 24.5946C81.9379 24.1802 81.5234 23.8559 81.0189 23.6216C80.5324 23.3694 80.0099 23.2432 79.4514 23.2432C78.9108 23.2432 78.4063 23.3153 77.9379 23.4595C77.4694 23.6036 77.064 23.8468 76.7216 24.1892C76.3793 24.5315 76.109 24.991 75.9108 25.5676C75.7126 26.1441 75.6135 26.8739 75.6135 27.7568C75.6135 28.7297 75.8117 29.5586 76.2081 30.2432C76.6225 30.9099 77.1451 31.4234 77.7757 31.7838C78.4243 32.1261 79.109 32.2973 79.8297 32.2973C80.4964 32.2973 81.0279 32.2432 81.4243 32.1351C81.8207 32.027 82.1361 31.9009 82.3703 31.7568C82.6225 31.5946 82.8478 31.4595 83.046 31.3514C83.3703 31.1892 83.6766 31.1081 83.9649 31.1081C84.3613 31.1081 84.6856 31.2432 84.9379 31.5135C85.2081 31.7838 85.3433 32.0991 85.3433 32.4595C85.3433 32.9459 85.091 33.3874 84.5865 33.7838C84.118 34.1802 83.4604 34.5315 82.6135 34.8378C81.7667 35.1261 80.8928 35.2703 79.9919 35.2703ZM101.066 20.2703C101.535 20.2703 101.922 20.4234 102.228 20.7297C102.535 21.036 102.688 21.4324 102.688 21.9189V33.3514C102.688 33.8198 102.535 34.2162 102.228 34.5405C101.922 34.8468 101.535 35 101.066 35C100.598 35 100.21 34.8468 99.9041 34.5405C99.5978 34.2162 99.4446 33.8198 99.4446 33.3514V32.027L100.039 32.2703C100.039 32.5045 99.9131 32.7928 99.6608 33.1351C99.4086 33.4595 99.0662 33.7838 98.6338 34.1081C98.2014 34.4324 97.6879 34.7117 97.0933 34.9459C96.5167 35.1622 95.8861 35.2703 95.2014 35.2703C93.9581 35.2703 92.832 34.955 91.823 34.3243C90.814 33.6757 90.0122 32.7928 89.4176 31.6757C88.841 30.5405 88.5527 29.2432 88.5527 27.7838C88.5527 26.3063 88.841 25.009 89.4176 23.8919C90.0122 22.7568 90.805 21.8739 91.796 21.2432C92.787 20.5946 93.8861 20.2703 95.0933 20.2703C95.868 20.2703 96.5798 20.3874 97.2284 20.6216C97.877 20.8559 98.4356 21.1532 98.9041 21.5135C99.3906 21.8739 99.7599 22.2432 100.012 22.6216C100.282 22.982 100.418 23.2883 100.418 23.5405L99.4446 23.8919V21.9189C99.4446 21.4504 99.5978 21.0631 99.9041 20.7568C100.21 20.4324 100.598 20.2703 101.066 20.2703ZM95.6068 32.2973C96.3996 32.2973 97.0933 32.0991 97.6879 31.7027C98.2825 31.3063 98.7419 30.7658 99.0662 30.0811C99.4086 29.3964 99.5798 28.6306 99.5798 27.7838C99.5798 26.9189 99.4086 26.1441 99.0662 25.4595C98.7419 24.7748 98.2825 24.2342 97.6879 23.8378C97.0933 23.4414 96.3996 23.2432 95.6068 23.2432C94.832 23.2432 94.1473 23.4414 93.5527 23.8378C92.9581 24.2342 92.4897 24.7748 92.1473 25.4595C91.823 26.1441 91.6608 26.9189 91.6608 27.7838C91.6608 28.6306 91.823 29.3964 92.1473 30.0811C92.4897 30.7658 92.9581 31.3063 93.5527 31.7027C94.1473 32.0991 94.832 32.2973 95.6068 32.2973ZM109.713 33.3514C109.713 33.8198 109.551 34.2162 109.226 34.5405C108.92 34.8468 108.533 35 108.064 35C107.614 35 107.236 34.8468 106.929 34.5405C106.623 34.2162 106.47 33.8198 106.47 33.3514V16.6486C106.47 16.1802 106.623 15.7928 106.929 15.4865C107.254 15.1622 107.65 15 108.118 15C108.587 15 108.965 15.1622 109.254 15.4865C109.56 15.7928 109.713 16.1802 109.713 16.6486V33.3514ZM113.567 20.8108H119.972C120.405 20.8108 120.765 20.955 121.054 21.2432C121.342 21.5315 121.486 21.8919 121.486 22.3243C121.486 22.7387 121.342 23.0901 121.054 23.3784C120.765 23.6486 120.405 23.7838 119.972 23.7838H113.567C113.135 23.7838 112.774 23.6396 112.486 23.3513C112.198 23.0631 112.054 22.7027 112.054 22.2703C112.054 21.8559 112.198 21.5135 112.486 21.2432C112.774 20.955 113.135 20.8108 113.567 20.8108ZM116.459 17.4324C116.927 17.4324 117.306 17.5946 117.594 17.9189C117.9 18.2252 118.054 18.6126 118.054 19.0811V31.1081C118.054 31.3604 118.099 31.5676 118.189 31.7297C118.297 31.8919 118.432 32.009 118.594 32.0811C118.774 32.1532 118.963 32.1892 119.162 32.1892C119.378 32.1892 119.576 32.1532 119.756 32.0811C119.936 31.991 120.144 31.9459 120.378 31.9459C120.63 31.9459 120.855 32.0631 121.054 32.2973C121.27 32.5315 121.378 32.8559 121.378 33.2703C121.378 33.7748 121.099 34.1892 120.54 34.5135C120 34.8378 119.414 35 118.783 35C118.405 35 117.981 34.973 117.513 34.9189C117.063 34.8468 116.63 34.6937 116.216 34.4595C115.819 34.2072 115.486 33.8288 115.216 33.3243C114.945 32.8198 114.81 32.1261 114.81 31.2432V19.0811C114.81 18.6126 114.963 18.2252 115.27 17.9189C115.594 17.5946 115.991 17.4324 116.459 17.4324ZM132.058 20.2703C133.356 20.2703 134.338 20.5495 135.004 21.1081C135.689 21.6667 136.158 22.4144 136.41 23.3513C136.662 24.2703 136.788 25.2973 136.788 26.4324V33.3514C136.788 33.8198 136.635 34.2162 136.329 34.5405C136.022 34.8468 135.635 35 135.167 35C134.698 35 134.311 34.8468 134.004 34.5405C133.698 34.2162 133.545 33.8198 133.545 33.3514V26.4324C133.545 25.8378 133.473 25.3063 133.329 24.8378C133.185 24.3513 132.923 23.964 132.545 23.6757C132.167 23.3874 131.626 23.2432 130.923 23.2432C130.239 23.2432 129.653 23.3874 129.167 23.6757C128.68 23.964 128.311 24.3513 128.058 24.8378C127.824 25.3063 127.707 25.8378 127.707 26.4324V33.3514C127.707 33.8198 127.554 34.2162 127.248 34.5405C126.941 34.8468 126.554 35 126.085 35C125.617 35 125.23 34.8468 124.923 34.5405C124.617 34.2162 124.464 33.8198 124.464 33.3514V16.6486C124.464 16.1802 124.617 15.7928 124.923 15.4865C125.23 15.1622 125.617 15 126.085 15C126.554 15 126.941 15.1622 127.248 15.4865C127.554 15.7928 127.707 16.1802 127.707 16.6486V23.3513L127.302 23.2703C127.464 22.964 127.689 22.6396 127.977 22.2973C128.266 21.9369 128.617 21.6036 129.031 21.2973C129.446 20.991 129.905 20.7477 130.41 20.5676C130.914 20.3694 131.464 20.2703 132.058 20.2703ZM143.354 33.3514C143.354 33.8198 143.201 34.2162 142.895 34.5405C142.588 34.8468 142.201 35 141.732 35C141.264 35 140.877 34.8468 140.57 34.5405C140.264 34.2162 140.111 33.8198 140.111 33.3514V22.1892C140.111 21.7207 140.264 21.3333 140.57 21.027C140.877 20.7027 141.264 20.5405 141.732 20.5405C142.201 20.5405 142.588 20.7027 142.895 21.027C143.201 21.3333 143.354 21.7207 143.354 22.1892V33.3514ZM141.705 18.7838C141.093 18.7838 140.66 18.6847 140.408 18.4865C140.156 18.2883 140.03 17.9369 140.03 17.4324V16.9189C140.03 16.3964 140.165 16.045 140.435 15.8649C140.723 15.6667 141.156 15.5676 141.732 15.5676C142.363 15.5676 142.804 15.6667 143.057 15.8649C143.309 16.0631 143.435 16.4144 143.435 16.9189V17.4324C143.435 17.955 143.3 18.3153 143.03 18.5135C142.759 18.6937 142.318 18.7838 141.705 18.7838ZM154.12 15C154.516 15 154.903 15.0541 155.282 15.1622C155.66 15.2703 155.976 15.4504 156.228 15.7027C156.48 15.9369 156.606 16.2522 156.606 16.6486C156.606 17.0991 156.471 17.4595 156.201 17.7297C155.948 17.982 155.651 18.1081 155.309 18.1081C155.147 18.1081 154.903 18.0721 154.579 18C154.255 17.9099 153.939 17.8649 153.633 17.8649C153.183 17.8649 152.831 17.964 152.579 18.1622C152.345 18.3604 152.183 18.5946 152.093 18.8649C152.003 19.1171 151.958 19.3423 151.958 19.5405V33.3514C151.958 33.8198 151.804 34.2162 151.498 34.5405C151.192 34.8468 150.804 35 150.336 35C149.867 35 149.48 34.8468 149.174 34.5405C148.867 34.2162 148.714 33.8198 148.714 33.3514V19.5676C148.714 18.2883 149.165 17.2072 150.066 16.3243C150.967 15.4414 152.318 15 154.12 15ZM154.417 20.8108C154.849 20.8108 155.21 20.955 155.498 21.2432C155.786 21.5135 155.93 21.8649 155.93 22.2973C155.93 22.7297 155.786 23.0901 155.498 23.3784C155.21 23.6486 154.849 23.7838 154.417 23.7838H147.255C146.822 23.7838 146.462 23.6486 146.174 23.3784C145.885 23.0901 145.741 22.7297 145.741 22.2973C145.741 21.8649 145.885 21.5135 146.174 21.2432C146.462 20.955 146.822 20.8108 147.255 20.8108H154.417ZM169.215 20.5405C169.683 20.5405 170.071 20.7027 170.377 21.027C170.683 21.3333 170.837 21.7207 170.837 22.1892V33.6757C170.837 35.3333 170.521 36.6486 169.891 37.6216C169.278 38.6126 168.449 39.3243 167.404 39.7568C166.359 40.1892 165.188 40.4054 163.891 40.4054C163.314 40.4054 162.701 40.3604 162.053 40.2703C161.404 40.1802 160.873 40.045 160.458 39.8649C159.918 39.6306 159.539 39.3333 159.323 38.973C159.125 38.6306 159.089 38.2613 159.215 37.8649C159.377 37.3423 159.638 36.982 159.999 36.7838C160.359 36.6036 160.737 36.5856 161.134 36.7297C161.422 36.8198 161.8 36.955 162.269 37.1351C162.737 37.3333 163.278 37.4324 163.891 37.4324C164.719 37.4324 165.404 37.3153 165.945 37.0811C166.503 36.8649 166.918 36.4865 167.188 35.9459C167.476 35.4234 167.62 34.7027 167.62 33.7838V31.973L168.188 32.6216C167.882 33.2162 167.494 33.7117 167.026 34.1081C166.575 34.4865 166.035 34.7748 165.404 34.973C164.773 35.1712 164.053 35.2703 163.242 35.2703C162.287 35.2703 161.449 35.0541 160.728 34.6216C160.026 34.1712 159.476 33.5586 159.08 32.7838C158.683 31.991 158.485 31.0901 158.485 30.0811V22.1892C158.485 21.7207 158.638 21.3333 158.945 21.027C159.251 20.7027 159.638 20.5405 160.107 20.5405C160.575 20.5405 160.963 20.7027 161.269 21.027C161.575 21.3333 161.728 21.7207 161.728 22.1892V29.1081C161.728 30.2793 161.981 31.1081 162.485 31.5946C163.008 32.0631 163.728 32.2973 164.647 32.2973C165.278 32.2973 165.809 32.1802 166.242 31.9459C166.674 31.6937 167.008 31.3333 167.242 30.8649C167.476 30.3784 167.593 29.7928 167.593 29.1081V22.1892C167.593 21.7207 167.746 21.3333 168.053 21.027C168.359 20.7027 168.746 20.5405 169.215 20.5405Z" fill="#42AB01"/>
</svg>
