<svg width="51" height="50" viewBox="0 0 51 50" fill="none" xmlns="http://www.w3.org/2000/svg">
<g clip-path="url(#clip0_463_184)">
<path d="M25.0896 50C11.2821 50 0.0895996 38.8075 0.0895996 25C0.0895996 11.1925 11.2821 0 25.0896 0C38.8971 0 50.0896 11.1925 50.0896 25C50.0896 38.8075 38.8971 50 25.0896 50ZM12.5896 25C12.5896 28.3152 13.9066 31.4946 16.2508 33.8388C18.595 36.183 21.7744 37.5 25.0896 37.5C28.4048 37.5 31.5842 36.183 33.9284 33.8388C36.2726 31.4946 37.5896 28.3152 37.5896 25H32.5896C32.5896 26.9891 31.7994 28.8968 30.3929 30.3033C28.9864 31.7098 27.0787 32.5 25.0896 32.5C23.1005 32.5 21.1928 31.7098 19.7863 30.3033C18.3798 28.8968 17.5896 26.9891 17.5896 25H12.5896Z" fill="#2482C6"/>
</g>
<defs>
<clipPath id="clip0_463_184">
<rect width="50" height="50" fill="white" transform="translate(0.0895996)"/>
</clipPath>
</defs>
</svg>
