<svg width="25" height="24" viewBox="0 0 25 24" fill="none" xmlns="http://www.w3.org/2000/svg">
<g clip-path="url(#clip0_94_326)">
<path d="M21.6256 0H2.9589C1.49224 0 0.292236 1.2 0.292236 2.66667V21.3333C0.292236 22.8013 1.49224 24 2.9589 24H12.2922V14.6667H9.62557V11.3667H12.2922V8.63333C12.2922 5.748 13.9082 3.72133 17.3136 3.72133L19.7176 3.724V7.19733H18.1216C16.7962 7.19733 16.2922 8.192 16.2922 9.11467V11.368H19.7162L18.9589 14.6667H16.2922V24H21.6256C23.0922 24 24.2922 22.8013 24.2922 21.3333V2.66667C24.2922 1.2 23.0922 0 21.6256 0Z" fill="white"/>
</g>
<defs>
<clipPath id="clip0_94_326">
<rect width="24" height="24" fill="white" transform="translate(0.292236)"/>
</clipPath>
</defs>
</svg>
