<svg width="25" height="24" viewBox="0 0 25 24" fill="none" xmlns="http://www.w3.org/2000/svg">
<g clip-path="url(#clip0_94_324)">
<path d="M12.0158 9.13895C11.45 9.13916 10.8969 9.30715 10.4265 9.62168C9.95611 9.93621 9.58954 10.3832 9.37314 10.906C9.15674 11.4289 9.10023 12.0041 9.21076 12.5591C9.32128 13.114 9.59387 13.6238 9.99407 14.0238C10.3943 14.4239 10.9041 14.6963 11.4591 14.8066C12.0141 14.9169 12.5894 14.8602 13.1121 14.6436C13.6349 14.427 14.0817 14.0603 14.3961 13.5897C14.7104 13.1192 14.8782 12.5661 14.8782 12.0002C14.8776 11.2414 14.5758 10.5137 14.0391 9.97724C13.5024 9.44074 12.7747 9.13923 12.0158 9.13895ZM18.7056 6.93962C18.5599 6.57048 18.3399 6.2352 18.0593 5.95459C17.7787 5.67398 17.4434 5.45402 17.0743 5.30836C15.9478 4.86367 13.2657 4.96344 12.0158 4.96344C10.766 4.96344 8.08656 4.85991 6.95685 5.30836C6.58771 5.45402 6.25243 5.67398 5.97182 5.95459C5.69122 6.2352 5.47126 6.57048 5.32559 6.93962C4.88144 8.0661 4.98068 10.7509 4.98068 11.9997C4.98068 13.2485 4.88144 15.93 5.32774 17.0603C5.4734 17.4294 5.69336 17.7647 5.97397 18.0453C6.25458 18.3259 6.58986 18.5459 6.959 18.6915C8.08548 19.1362 10.7676 19.0365 12.018 19.0365C13.2684 19.0365 15.9467 19.14 17.0764 18.6915C17.4456 18.5459 17.7809 18.3259 18.0615 18.0453C18.3421 17.7647 18.562 17.4294 18.7077 17.0603C19.1556 15.9338 19.0526 13.249 19.0526 12.0002C19.0526 10.7514 19.1556 8.0704 18.7077 6.94016L18.7056 6.93962ZM12.0158 16.3989C11.1459 16.3989 10.2954 16.1409 9.57208 15.6576C8.84873 15.1742 8.28494 14.4873 7.95202 13.6835C7.61909 12.8798 7.53198 11.9953 7.70171 11.1421C7.87143 10.2888 8.29036 9.50506 8.90553 8.8899C9.52069 8.27474 10.3045 7.85581 11.1577 7.68608C12.011 7.51636 12.8954 7.60347 13.6991 7.93639C14.5029 8.26932 15.1899 8.8331 15.6732 9.55646C16.1565 10.2798 16.4145 11.1302 16.4145 12.0002C16.4152 12.5781 16.3019 13.1504 16.0811 13.6844C15.8603 14.2183 15.5363 14.7035 15.1277 15.1121C14.7191 15.5207 14.234 15.8447 13.7 16.0655C13.166 16.2863 12.5937 16.3996 12.0158 16.3989ZM16.5958 8.44375C16.3927 8.44385 16.1942 8.38373 16.0253 8.27097C15.8563 8.15822 15.7247 7.99791 15.6469 7.81031C15.5691 7.62271 15.5487 7.41626 15.5882 7.21706C15.6278 7.01786 15.7255 6.83487 15.8691 6.69123C16.0127 6.54759 16.1956 6.44975 16.3948 6.41009C16.594 6.37043 16.8004 6.39073 16.9881 6.46843C17.1757 6.54612 17.3361 6.67772 17.4489 6.84657C17.5618 7.01542 17.622 7.21395 17.622 7.41703C17.6226 7.5519 17.5965 7.68555 17.5453 7.81031C17.4941 7.93508 17.4188 8.04851 17.3236 8.1441C17.2285 8.23969 17.1154 8.31555 16.9909 8.36734C16.8663 8.41913 16.7328 8.44582 16.598 8.44589L16.5958 8.44375ZM21.4569 -0.015625H2.57482C1.89194 -0.015625 1.23702 0.25565 0.754149 0.738524C0.271275 1.2214 0 1.87631 0 2.5592L0 21.4412C0 22.1241 0.271275 22.779 0.754149 23.2619C1.23702 23.7448 1.89194 24.0161 2.57482 24.0161H21.4569C22.1398 24.0161 22.7947 23.7448 23.2775 23.2619C23.7604 22.779 24.0317 22.1241 24.0317 21.4412V2.5592C24.0317 1.87631 23.7604 1.2214 23.2775 0.738524C22.7947 0.25565 22.1398 -0.015625 21.4569 -0.015625ZM20.5385 15.5406C20.4693 16.9155 20.1555 18.1337 19.1519 19.1346C18.1482 20.1356 16.9311 20.4558 15.5578 20.5213C14.1411 20.6012 9.89376 20.6012 8.47707 20.5213C7.10222 20.4521 5.8883 20.1377 4.88305 19.1346C3.87779 18.1315 3.56184 16.9128 3.4964 15.5406C3.41647 14.1234 3.41647 9.87545 3.4964 8.45984C3.5656 7.08499 3.87565 5.86678 4.88305 4.86581C5.89045 3.86485 7.10759 3.54836 8.47707 3.48292C9.89376 3.40299 14.1411 3.40299 15.5578 3.48292C16.9327 3.55212 18.1504 3.86646 19.1519 4.86957C20.1534 5.87268 20.4731 7.09143 20.5385 8.46628C20.6184 9.87814 20.6184 14.1223 20.5385 15.5406Z" fill="white"/>
</g>
<defs>
<clipPath id="clip0_94_324">
<rect width="24.0423" height="24" rx="3" fill="white"/>
</clipPath>
</defs>
</svg>
