<svg width="25" height="24" viewBox="0 0 25 24" fill="none" xmlns="http://www.w3.org/2000/svg">
<g clip-path="url(#clip0_94_328)">
<path d="M22.6227 0H2.59295C1.49848 0 0.542236 0.7875 0.542236 1.86911V21.9434C0.542236 23.0309 1.49848 24 2.59295 24H22.6168C23.7172 24 24.5422 23.0245 24.5422 21.9434V1.86911C24.5486 0.7875 23.7172 0 22.6227 0ZM7.98169 20.0052H4.54348V9.315H7.98169V20.0052ZM6.38151 7.68964H6.35687C5.25651 7.68964 4.54402 6.87054 4.54402 5.84518C4.54402 4.80107 5.27526 4.00125 6.40026 4.00125C7.52526 4.00125 8.21365 4.79518 8.2383 5.84518C8.23776 6.87054 7.52526 7.68964 6.38151 7.68964ZM20.5474 20.0052H17.1092V14.16C17.1092 12.7596 16.6088 11.8029 15.3649 11.8029C14.4145 11.8029 13.852 12.4457 13.6019 13.072C13.5081 13.297 13.4829 13.6034 13.4829 13.9162V20.0052H10.0447V9.315H13.4829V10.8027C13.9833 10.0902 14.7649 9.06482 16.5836 9.06482C18.8406 9.06482 20.5479 10.5525 20.5479 13.7598L20.5474 20.0052Z" fill="white"/>
</g>
<defs>
<clipPath id="clip0_94_328">
<rect width="24" height="24" fill="white" transform="translate(0.542236)"/>
</clipPath>
</defs>
</svg>
