<svg width="139" height="40" viewBox="0 0 139 40" fill="none" xmlns="http://www.w3.org/2000/svg">
<path d="M-1.52588e-05 25.3862C5.52916 29.8462 15.2454 23.4632 16.6267 35.5625C15.3046 32.0369 13.2212 29.7933 7.53209 30.5545C14.1828 29.6646 16.0257 36.0032 16.0257 36.0032C10.7372 35.8029 4.08655 33.0385 -1.52588e-05 25.3862Z" fill="white"/>
<path d="M36.0579 15.6904C31.8858 25.0206 13.8777 17.5825 17.1395 35.636C18.8842 31.2364 21.7667 27.2161 26.5456 25.2439C22.9046 28.3539 20.4772 31.995 19.3394 35.0291C29.6557 33.6638 36.4185 26.7481 36.0579 15.6904Z" fill="white"/>
<path fill-rule="evenodd" clip-rule="evenodd" d="M15.7325 9.70996C15.4077 9.70996 15.1443 9.97332 15.1443 10.2982V13.7164H11.7261C11.4012 13.7164 11.1379 13.9797 11.1379 14.3046V17.1345C11.1379 17.4594 11.4012 17.7228 11.7261 17.7228H15.1443V21.141C15.1443 21.4658 15.4077 21.7292 15.7325 21.7292H18.5625C18.8874 21.7292 19.1508 21.4658 19.1508 21.141V17.7228H22.569C22.8938 17.7228 23.1572 17.4594 23.1572 17.1345V14.3046C23.1572 13.9797 22.8938 13.7164 22.569 13.7164H19.1508V10.2982C19.1508 9.97332 18.8874 9.70996 18.5625 9.70996H15.7325Z" fill="white"/>
<path d="M33.9784 17.289C33.982 17.0152 33.9789 16.7416 33.9692 16.4686C33.886 14.1356 33.3189 11.8422 32.3002 9.7351C31.1624 7.3814 29.4925 5.32475 27.4226 3.72785C25.3527 2.13094 22.9396 1.03759 20.3742 0.534281C17.8088 0.0309735 15.1615 0.131515 12.6416 0.827956C10.1218 1.5244 7.79855 2.79763 5.85574 4.54693C3.91292 6.29624 2.40381 8.47362 1.44779 10.9068C0.491761 13.3401 0.115046 15.9624 0.347444 18.5663C0.547224 20.8048 1.19242 22.9769 2.24106 24.9563C2.41228 25.2795 2.59424 25.5975 2.78678 25.9099L5.16338 26.2276C4.88089 25.6864 4.62098 25.1879 4.38286 24.7186C3.22321 22.4329 2.58031 20.8396 2.36139 18.3866C2.15688 16.0951 2.48838 13.7875 3.32969 11.6462C4.17099 9.505 5.49901 7.5889 7.20868 6.04952C8.91836 4.51013 10.9628 3.38969 13.1803 2.77682C15.3977 2.16395 17.7274 2.07547 19.9849 2.51839C22.2425 2.9613 24.366 3.92345 26.1875 5.32872C28.009 6.734 29.4786 8.54385 30.4799 10.6151C31.4032 12.4659 31.7917 14.404 31.9656 16.5036C32.0216 17.1799 32.0554 17.8729 32.0775 18.5852L33.9784 17.289Z" fill="white"/>
<path d="M53.7518 16.7163C54.7896 16.7163 55.5752 16.9397 56.1085 17.3865C56.6563 17.8334 57.031 18.4316 57.2328 19.1811C57.4346 19.9162 57.5355 20.7379 57.5355 21.646V27.1811C57.5355 27.5559 57.413 27.873 57.168 28.1324C56.9229 28.3775 56.613 28.5 56.2382 28.5C55.8635 28.5 55.5536 28.3775 55.3085 28.1324C55.0635 27.873 54.9409 27.5559 54.9409 27.1811V21.646C54.9409 21.1703 54.8833 20.7451 54.768 20.3703C54.6527 19.9811 54.4437 19.6712 54.141 19.4406C53.8383 19.2099 53.4058 19.0946 52.8437 19.0946C52.2959 19.0946 51.8274 19.2099 51.4383 19.4406C51.0491 19.6712 50.7536 19.9811 50.5518 20.3703C50.3644 20.7451 50.2707 21.1703 50.2707 21.646V27.1811C50.2707 27.5559 50.1482 27.873 49.9031 28.1324C49.6581 28.3775 49.3482 28.5 48.9734 28.5C48.5986 28.5 48.2887 28.3775 48.0437 28.1324C47.7986 27.873 47.6761 27.5559 47.6761 27.1811V13.819C47.6761 13.4442 47.7986 13.1343 48.0437 12.8892C48.2887 12.6298 48.5986 12.5001 48.9734 12.5001C49.3482 12.5001 49.6581 12.6298 49.9031 12.8892C50.1482 13.1343 50.2707 13.4442 50.2707 13.819V19.1811L49.9464 19.1162C50.0761 18.8712 50.2563 18.6117 50.4869 18.3379C50.7175 18.0496 50.9986 17.7829 51.3301 17.5379C51.6617 17.2928 52.0292 17.0982 52.4328 16.9541C52.8365 16.7955 53.2761 16.7163 53.7518 16.7163ZM65.7936 28.7162C64.5684 28.7162 63.5017 28.464 62.5936 27.9595C61.6999 27.4405 61.008 26.7414 60.518 25.8622C60.0423 24.9829 59.8044 23.9883 59.8044 22.8784C59.8044 21.5811 60.0639 20.4784 60.5828 19.5703C61.1162 18.6478 61.808 17.9415 62.6585 17.4514C63.5089 16.9613 64.4098 16.7163 65.3612 16.7163C66.0963 16.7163 66.7882 16.8676 67.4369 17.1703C68.0999 17.473 68.6837 17.891 69.1882 18.4244C69.6927 18.9433 70.0891 19.5487 70.3774 20.2406C70.6801 20.9325 70.8314 21.6676 70.8314 22.446C70.817 22.7919 70.6801 23.073 70.4206 23.2892C70.1612 23.5054 69.8585 23.6135 69.5125 23.6135H61.2531L60.6044 21.4514H68.5396L68.0639 21.8838V21.3C68.0351 20.882 67.8837 20.5072 67.6098 20.1757C67.3504 19.8442 67.0188 19.5847 66.6152 19.3973C66.226 19.1955 65.808 19.0946 65.3612 19.0946C64.9288 19.0946 64.5252 19.1523 64.1504 19.2676C63.7756 19.3829 63.4513 19.5775 63.1774 19.8514C62.9035 20.1253 62.6873 20.4928 62.5288 20.9541C62.3702 21.4153 62.2909 21.9991 62.2909 22.7054C62.2909 23.4838 62.4495 24.1469 62.7666 24.6946C63.0981 25.2279 63.5161 25.6387 64.0207 25.927C64.5396 26.2009 65.0873 26.3378 65.6639 26.3378C66.1972 26.3378 66.6224 26.2946 66.9396 26.2081C67.2567 26.1216 67.5089 26.0207 67.6963 25.9054C67.8981 25.7757 68.0783 25.6676 68.2369 25.5811C68.4963 25.4514 68.7414 25.3865 68.972 25.3865C69.2891 25.3865 69.5486 25.4946 69.7504 25.7108C69.9666 25.927 70.0747 26.1793 70.0747 26.4676C70.0747 26.8568 69.8729 27.2099 69.4693 27.527C69.0945 27.8441 68.5684 28.1252 67.8909 28.3703C67.2134 28.6009 66.5143 28.7162 65.7936 28.7162ZM82.653 16.7163C83.0278 16.7163 83.3377 16.8388 83.5828 17.0838C83.8278 17.3289 83.9503 17.646 83.9503 18.0352V27.1811C83.9503 27.5559 83.8278 27.873 83.5828 28.1324C83.3377 28.3775 83.0278 28.5 82.653 28.5C82.2783 28.5 81.9683 28.3775 81.7233 28.1324C81.4783 27.873 81.3557 27.5559 81.3557 27.1811V26.1216L81.8314 26.3162C81.8314 26.5036 81.7305 26.7342 81.5287 27.0081C81.3269 27.2676 81.053 27.527 80.7071 27.7865C80.3611 28.0459 79.9503 28.2694 79.4747 28.4568C79.0134 28.6297 78.5089 28.7162 77.9611 28.7162C76.9666 28.7162 76.0657 28.464 75.2585 27.9595C74.4512 27.4405 73.8098 26.7342 73.3341 25.8405C72.8729 24.9324 72.6422 23.8946 72.6422 22.727C72.6422 21.5451 72.8729 20.5072 73.3341 19.6135C73.8098 18.7054 74.444 17.9991 75.2368 17.4946C76.0296 16.9757 76.9089 16.7163 77.8747 16.7163C78.4945 16.7163 79.0638 16.8099 79.5828 16.9973C80.1017 17.1847 80.5485 17.4226 80.9233 17.7108C81.3125 17.9991 81.608 18.2946 81.8098 18.5973C82.026 18.8856 82.1341 19.1307 82.1341 19.3325L81.3557 19.6135V18.0352C81.3557 17.6604 81.4783 17.3505 81.7233 17.1054C81.9683 16.846 82.2783 16.7163 82.653 16.7163ZM78.2855 26.3378C78.9197 26.3378 79.4747 26.1793 79.9503 25.8622C80.426 25.5451 80.7936 25.1126 81.053 24.5649C81.3269 24.0171 81.4638 23.4045 81.4638 22.727C81.4638 22.0352 81.3269 21.4153 81.053 20.8676C80.7936 20.3198 80.426 19.8874 79.9503 19.5703C79.4747 19.2532 78.9197 19.0946 78.2855 19.0946C77.6657 19.0946 77.1179 19.2532 76.6422 19.5703C76.1666 19.8874 75.7918 20.3198 75.5179 20.8676C75.2585 21.4153 75.1287 22.0352 75.1287 22.727C75.1287 23.4045 75.2585 24.0171 75.5179 24.5649C75.7918 25.1126 76.1666 25.5451 76.6422 25.8622C77.1179 26.1793 77.6657 26.3378 78.2855 26.3378ZM89.5704 27.1811C89.5704 27.5559 89.4407 27.873 89.1812 28.1324C88.9362 28.3775 88.6263 28.5 88.2515 28.5C87.8911 28.5 87.5884 28.3775 87.3434 28.1324C87.0983 27.873 86.9758 27.5559 86.9758 27.1811V13.819C86.9758 13.4442 87.0983 13.1343 87.3434 12.8892C87.6028 12.6298 87.92 12.5001 88.2947 12.5001C88.6695 12.5001 88.9722 12.6298 89.2028 12.8892C89.4479 13.1343 89.5704 13.4442 89.5704 13.819V27.1811ZM92.6537 17.1487H97.778C98.1239 17.1487 98.4122 17.264 98.6428 17.4946C98.8735 17.7253 98.9888 18.0135 98.9888 18.3595C98.9888 18.691 98.8735 18.9721 98.6428 19.2027C98.4122 19.4189 98.1239 19.5271 97.778 19.5271H92.6537C92.3077 19.5271 92.0194 19.4117 91.7888 19.1811C91.5582 18.9505 91.4429 18.6622 91.4429 18.3162C91.4429 17.9847 91.5582 17.7108 91.7888 17.4946C92.0194 17.264 92.3077 17.1487 92.6537 17.1487ZM94.9672 14.446C95.3419 14.446 95.6447 14.5757 95.8753 14.8352C96.1203 15.0802 96.2428 15.3901 96.2428 15.7649V25.3865C96.2428 25.5883 96.2789 25.7541 96.351 25.8838C96.4374 26.0135 96.5455 26.1072 96.6753 26.1649C96.8194 26.2225 96.9708 26.2514 97.1293 26.2514C97.3023 26.2514 97.4609 26.2225 97.605 26.1649C97.7491 26.0928 97.9149 26.0568 98.1023 26.0568C98.3041 26.0568 98.4843 26.1505 98.6428 26.3378C98.8158 26.5252 98.9023 26.7847 98.9023 27.1162C98.9023 27.5198 98.6789 27.8514 98.232 28.1108C97.7996 28.3703 97.3311 28.5 96.8266 28.5C96.5239 28.5 96.1852 28.4784 95.8104 28.4351C95.4501 28.3775 95.1041 28.255 94.7726 28.0676C94.4555 27.8658 94.1888 27.5631 93.9726 27.1595C93.7564 26.7559 93.6483 26.2009 93.6483 25.4946V15.7649C93.6483 15.3901 93.7708 15.0802 94.0158 14.8352C94.2753 14.5757 94.5924 14.446 94.9672 14.446ZM107.447 16.7163C108.485 16.7163 109.27 16.9397 109.803 17.3865C110.351 17.8334 110.726 18.4316 110.928 19.1811C111.13 19.9162 111.23 20.7379 111.23 21.646V27.1811C111.23 27.5559 111.108 27.873 110.863 28.1324C110.618 28.3775 110.308 28.5 109.933 28.5C109.558 28.5 109.248 28.3775 109.003 28.1324C108.758 27.873 108.636 27.5559 108.636 27.1811V21.646C108.636 21.1703 108.578 20.7451 108.463 20.3703C108.348 19.9811 108.139 19.6712 107.836 19.4406C107.533 19.2099 107.101 19.0946 106.539 19.0946C105.991 19.0946 105.522 19.2099 105.133 19.4406C104.744 19.6712 104.449 19.9811 104.247 20.3703C104.059 20.7451 103.966 21.1703 103.966 21.646V27.1811C103.966 27.5559 103.843 27.873 103.598 28.1324C103.353 28.3775 103.043 28.5 102.668 28.5C102.294 28.5 101.984 28.3775 101.739 28.1324C101.494 27.873 101.371 27.5559 101.371 27.1811V13.819C101.371 13.4442 101.494 13.1343 101.739 12.8892C101.984 12.6298 102.294 12.5001 102.668 12.5001C103.043 12.5001 103.353 12.6298 103.598 12.8892C103.843 13.1343 103.966 13.4442 103.966 13.819V19.1811L103.641 19.1162C103.771 18.8712 103.951 18.6117 104.182 18.3379C104.412 18.0496 104.694 17.7829 105.025 17.5379C105.357 17.2928 105.724 17.0982 106.128 16.9541C106.531 16.7955 106.971 16.7163 107.447 16.7163ZM116.483 27.1811C116.483 27.5559 116.361 27.873 116.116 28.1324C115.871 28.3775 115.561 28.5 115.186 28.5C114.811 28.5 114.501 28.3775 114.256 28.1324C114.011 27.873 113.889 27.5559 113.889 27.1811V18.2514C113.889 17.8766 114.011 17.5667 114.256 17.3217C114.501 17.0622 114.811 16.9325 115.186 16.9325C115.561 16.9325 115.871 17.0622 116.116 17.3217C116.361 17.5667 116.483 17.8766 116.483 18.2514V27.1811ZM115.164 15.5271C114.674 15.5271 114.328 15.4478 114.126 15.2892C113.925 15.1307 113.824 14.8496 113.824 14.446V14.0352C113.824 13.6172 113.932 13.3361 114.148 13.1919C114.379 13.0334 114.725 12.9541 115.186 12.9541C115.69 12.9541 116.044 13.0334 116.245 13.1919C116.447 13.3505 116.548 13.6316 116.548 14.0352V14.446C116.548 14.864 116.44 15.1523 116.224 15.3109C116.007 15.455 115.654 15.5271 115.164 15.5271ZM125.096 12.5001C125.413 12.5001 125.723 12.5433 126.025 12.6298C126.328 12.7163 126.58 12.8604 126.782 13.0622C126.984 13.2496 127.085 13.5018 127.085 13.819C127.085 14.1793 126.977 14.4676 126.76 14.6838C126.559 14.8856 126.321 14.9865 126.047 14.9865C125.917 14.9865 125.723 14.9577 125.463 14.9C125.204 14.828 124.951 14.7919 124.706 14.7919C124.346 14.7919 124.065 14.8712 123.863 15.0298C123.676 15.1883 123.546 15.3757 123.474 15.5919C123.402 15.7937 123.366 15.9739 123.366 16.1325V27.1811C123.366 27.5559 123.243 27.873 122.998 28.1324C122.753 28.3775 122.443 28.5 122.069 28.5C121.694 28.5 121.384 28.3775 121.139 28.1324C120.894 27.873 120.771 27.5559 120.771 27.1811V16.1541C120.771 15.1307 121.132 14.2658 121.852 13.5595C122.573 12.8532 123.654 12.5001 125.096 12.5001ZM125.333 17.1487C125.679 17.1487 125.968 17.264 126.198 17.4946C126.429 17.7108 126.544 17.9919 126.544 18.3379C126.544 18.6838 126.429 18.9721 126.198 19.2027C125.968 19.4189 125.679 19.5271 125.333 19.5271H119.604C119.258 19.5271 118.97 19.4189 118.739 19.2027C118.508 18.9721 118.393 18.6838 118.393 18.3379C118.393 17.9919 118.508 17.7108 118.739 17.4946C118.97 17.264 119.258 17.1487 119.604 17.1487H125.333ZM137.172 16.9325C137.547 16.9325 137.856 17.0622 138.101 17.3217C138.347 17.5667 138.469 17.8766 138.469 18.2514V27.4405C138.469 28.7667 138.217 29.8189 137.712 30.5973C137.222 31.3901 136.559 31.9594 135.723 32.3054C134.887 32.6513 133.95 32.8243 132.912 32.8243C132.451 32.8243 131.961 32.7883 131.442 32.7162C130.923 32.6441 130.498 32.536 130.166 32.3919C129.734 32.2045 129.431 31.9667 129.258 31.6784C129.1 31.4045 129.071 31.109 129.172 30.7919C129.302 30.3739 129.511 30.0856 129.799 29.927C130.087 29.7829 130.39 29.7685 130.707 29.8838C130.938 29.9559 131.24 30.064 131.615 30.2081C131.99 30.3667 132.422 30.4459 132.912 30.4459C133.575 30.4459 134.123 30.3522 134.556 30.1649C135.002 29.9919 135.334 29.6892 135.55 29.2568C135.781 28.8387 135.896 28.2622 135.896 27.527V26.0784L136.35 26.5973C136.105 27.073 135.795 27.4694 135.42 27.7865C135.06 28.0892 134.628 28.3198 134.123 28.4784C133.619 28.6369 133.042 28.7162 132.393 28.7162C131.629 28.7162 130.959 28.5432 130.383 28.1973C129.82 27.8369 129.381 27.3469 129.064 26.727C128.747 26.0928 128.588 25.3721 128.588 24.5649V18.2514C128.588 17.8766 128.711 17.5667 128.956 17.3217C129.201 17.0622 129.511 16.9325 129.885 16.9325C130.26 16.9325 130.57 17.0622 130.815 17.3217C131.06 17.5667 131.183 17.8766 131.183 18.2514V23.7865C131.183 24.7234 131.384 25.3865 131.788 25.7757C132.206 26.1505 132.783 26.3378 133.518 26.3378C134.022 26.3378 134.447 26.2442 134.793 26.0568C135.139 25.855 135.406 25.5667 135.593 25.1919C135.781 24.8027 135.874 24.3342 135.874 23.7865V18.2514C135.874 17.8766 135.997 17.5667 136.242 17.3217C136.487 17.0622 136.797 16.9325 137.172 16.9325Z" fill="white"/>
</svg>
