<svg width="40" height="40" viewBox="0 0 40 40" fill="none" xmlns="http://www.w3.org/2000/svg">
<path d="M2.00012 25.386C7.52929 29.8459 17.2455 23.4629 18.6268 35.5623C17.3047 32.0367 15.2213 29.7931 9.53221 30.5543C16.1829 29.6644 18.0258 36.003 18.0258 36.003C12.7374 35.8027 6.08668 33.0383 2.00012 25.386Z" fill="#42AB01"/>
<path d="M38.058 15.6904C33.8859 25.0206 15.8778 17.5825 19.1396 35.6361C20.8843 31.2365 23.7668 27.2162 28.5457 25.2439C24.9047 28.354 22.4773 31.9951 21.3395 35.0293C31.6558 33.6639 38.4186 26.7482 38.058 15.6904Z" fill="#42AB01"/>
<path fill-rule="evenodd" clip-rule="evenodd" d="M17.7326 9.70996C17.4077 9.70996 17.1444 9.97332 17.1444 10.2982V13.7164H13.7261C13.4012 13.7164 13.1379 13.9798 13.1379 14.3046V17.1346C13.1379 17.4595 13.4012 17.7228 13.7261 17.7228H17.1444V21.141C17.1444 21.4659 17.4077 21.7293 17.7326 21.7293H20.5626C20.8875 21.7293 21.1508 21.4659 21.1508 21.141V17.7228H24.5689C24.8938 17.7228 25.1572 17.4595 25.1572 17.1346V14.3046C25.1572 13.9798 24.8938 13.7164 24.5689 13.7164H21.1508V10.2982C21.1508 9.97332 20.8875 9.70996 20.5626 9.70996H17.7326Z" fill="#2482C6"/>
<path d="M35.9784 17.2892C35.982 17.0153 35.9789 16.7418 35.9692 16.4688C35.8861 14.1358 35.3189 11.8423 34.3003 9.73522C33.1625 7.38151 31.4925 5.32485 29.4227 3.72793C27.3528 2.13101 24.9397 1.03765 22.3743 0.534342C19.8088 0.0310295 17.1615 0.131572 14.6417 0.828019C12.1218 1.52446 9.79863 2.79771 7.85582 4.54702C5.91301 6.29634 4.4039 8.47374 3.44788 10.907C2.49185 13.3402 2.11514 15.9625 2.34754 18.5665C2.54731 20.805 3.19251 22.9771 4.24115 24.9565C4.41236 25.2797 4.59433 25.5978 4.78687 25.9101L7.16347 26.2278C6.88097 25.6867 6.62106 25.1881 6.38294 24.7188C5.2233 22.4331 4.5804 20.8398 4.36147 18.3868C4.15696 16.0953 4.48847 13.7876 5.32977 11.6464C6.17108 9.50513 7.49909 7.58901 9.20876 6.04962C10.9184 4.51022 12.9629 3.38977 15.1803 2.7769C17.3978 2.16402 19.7274 2.07555 21.985 2.51846C24.2425 2.96138 26.3661 3.92353 28.1876 5.32882C30.0091 6.73411 31.4786 8.54397 32.4799 10.6152C33.4032 12.4661 33.7917 14.4042 33.9656 16.5037C34.0216 17.1801 34.0554 17.8731 34.0776 18.5854L35.9784 17.2892Z" fill="#2482C6"/>
</svg>
