<svg width="50" height="50" viewBox="0 0 50 50" fill="none" xmlns="http://www.w3.org/2000/svg">
<path fill-rule="evenodd" clip-rule="evenodd" d="M18.6594 24.7489C16.6177 24.2062 12.5 22.6844 12.5 19.2323C12.5 14.6416 18.1021 8.33331 18.1021 8.33331C18.1021 8.33331 19.926 5.20831 25.0573 5.20831C30.1875 5.20831 32.8094 8.33331 32.8094 8.33331C32.8094 8.33331 36.4583 12.4239 36.4583 19.2323C36.4583 22.7406 34.4 24.1646 32.4052 24.7219C30.7844 26.6489 28.2854 27.8708 25.5208 27.8708C22.7688 27.8708 20.2813 26.6614 18.6594 24.7489ZM19.2656 21.7885C20.2281 24.1052 22.6323 25.7885 25.5208 25.7885C26.7083 25.7885 27.8135 25.5031 28.7708 25.0073L28.7052 25C28.7052 25 34.9323 18.9916 29.6875 11.4583C29.1177 10.3989 20.4396 13.0208 19.2708 14.5833C18.5688 15.5208 18.8938 19.0885 19.2656 21.7885Z" fill="#42AB01"/>
<path d="M15.0344 34.8354C14.4059 35.2204 13.9338 35.8151 13.7013 36.5145C13.4688 37.2138 13.491 37.9729 13.764 38.6575C14.0369 39.3421 14.5431 39.9082 15.1929 40.2557C15.8428 40.6033 16.5946 40.71 17.3156 40.557C18.0365 40.404 18.6802 40.0011 19.1329 39.4195C19.5855 38.8379 19.8181 38.115 19.7894 37.3786C19.7607 36.6422 19.4727 35.9395 18.9762 35.3949C18.4797 34.8502 17.8067 34.4986 17.076 34.402C17.037 34.2623 17.0012 34.1216 16.9688 33.9802C16.8263 33.3366 16.7151 32.6865 16.6354 32.0322C16.5494 31.3709 16.5007 30.7053 16.4896 30.0385C16.4874 29.8554 16.4926 29.6722 16.5052 29.4895C16.9052 29.375 17.3073 29.2708 17.7083 29.1802C18.1677 29.076 18.4406 29.6177 18.6604 30.0572L18.6719 30.0802L18.75 30.2333H30.9885C31.2271 29.7812 31.7677 29.0604 32.2917 29.1802C32.85 29.3073 33.4115 29.4583 33.9677 29.6312L33.9646 29.6323C33.9625 29.6302 33.9625 29.6302 33.9646 29.6343C33.9687 29.6489 33.9917 29.7177 34.0146 29.8635C34.0406 30.0323 34.0583 30.251 34.0667 30.5145C34.0812 31.0395 34.051 31.6781 33.9896 32.3218C33.9271 32.9645 33.8344 33.5864 33.7302 34.077C33.7073 34.1864 33.6844 34.2854 33.6615 34.375H32.2917C32.0983 34.3751 31.9087 34.429 31.7442 34.5307C31.5798 34.6325 31.4469 34.778 31.3604 34.951L30.3188 37.0343C30.2463 37.1789 30.2085 37.3383 30.2083 37.5V39.5833C30.2083 39.8596 30.3181 40.1245 30.5134 40.3199C30.7088 40.5152 30.9737 40.625 31.25 40.625H33.3333V38.5416H32.2917V37.7458L32.9354 36.4583H35.8146L36.4583 37.7458V38.5416H35.4167V40.625H37.5C37.7763 40.625 38.0412 40.5152 38.2366 40.3199C38.4319 40.1245 38.5417 39.8596 38.5417 39.5833V37.5C38.5415 37.3383 38.5037 37.1789 38.4313 37.0343L37.3896 34.951C37.3031 34.778 37.1702 34.6325 37.0058 34.5307C36.8413 34.429 36.6517 34.3751 36.4583 34.375H35.7958C35.9073 33.8197 36 33.1718 36.0625 32.5218C36.1312 31.8198 36.1667 31.0916 36.149 30.4562L36.1479 30.427C40.3021 32.1822 43.75 35.0687 43.75 38.0937V43.75H6.25V38.0937C6.25 34.9354 10.0104 31.927 14.4073 30.201C14.4187 30.8489 14.4802 31.5812 14.5687 32.2906C14.6646 33.0562 14.7948 33.8177 14.9385 34.4448C14.9698 34.5791 15.001 34.7093 15.0344 34.8354Z" fill="#42AB01"/>
<path d="M16.6667 38.5573C17.2271 38.5573 17.7083 38.0989 17.7083 37.5C17.7083 36.9021 17.2271 36.4427 16.6667 36.4427C16.1063 36.4427 15.625 36.901 15.625 37.5C15.625 38.0979 16.1063 38.5573 16.6667 38.5573Z" fill="#42AB01"/>
</svg>
