<svg width="15" height="15" viewBox="0 0 15 15" fill="none" xmlns="http://www.w3.org/2000/svg">
<rect width="15" height="15" rx="1.63043" fill="#808080"/>
<path d="M6.02311 7.15385C5.56409 7.15385 5.12386 6.9715 4.79928 6.64692C4.47469 6.32233 4.29234 5.88211 4.29234 5.42308V4.03846C4.29234 3.94666 4.32881 3.85861 4.39373 3.79369C4.45865 3.72878 4.54669 3.69231 4.6385 3.69231H4.98465C5.07646 3.69231 5.1645 3.65584 5.22942 3.59092C5.29434 3.52601 5.33081 3.43796 5.33081 3.34615C5.33081 3.25435 5.29434 3.1663 5.22942 3.10139C5.1645 3.03647 5.07646 3 4.98465 3H4.6385C4.36308 3 4.09894 3.10941 3.9042 3.30416C3.70945 3.49891 3.60004 3.76304 3.60004 4.03846V5.42308C3.60048 5.81414 3.69584 6.19925 3.87793 6.54534C4.06002 6.89142 4.32339 7.18814 4.64542 7.41C4.95482 7.68278 5.20574 8.01542 5.38304 8.38786C5.56033 8.76029 5.66031 9.16478 5.67696 9.57692C5.67696 10.2196 5.93225 10.8359 6.38666 11.2903C6.84108 11.7447 7.4574 12 8.10004 12C8.74268 12 9.359 11.7447 9.81341 11.2903C10.2678 10.8359 10.5231 10.2196 10.5231 9.57692V9.18231C10.8494 9.09806 11.1338 8.89769 11.3229 8.61877C11.5121 8.33984 11.593 8.00151 11.5505 7.66719C11.5081 7.33287 11.3451 7.02552 11.0923 6.80273C10.8394 6.57995 10.514 6.45704 10.177 6.45704C9.83996 6.45704 9.51452 6.57995 9.26165 6.80273C9.00878 7.02552 8.84585 7.33287 8.80338 7.66719C8.76092 8.00151 8.84184 8.33984 9.03098 8.61877C9.22013 8.89769 9.5045 9.09806 9.83081 9.18231V9.57692C9.83081 10.036 9.64846 10.4762 9.32388 10.8008C8.9993 11.1253 8.55907 11.3077 8.10004 11.3077C7.64101 11.3077 7.20078 11.1253 6.8762 10.8008C6.55162 10.4762 6.36927 10.036 6.36927 9.57692C6.38679 9.16427 6.48786 8.75946 6.66635 8.387C6.84485 8.01454 7.09706 7.68217 7.40773 7.41C7.72849 7.18737 7.99051 6.89031 8.17137 6.54428C8.35222 6.19824 8.44652 5.81353 8.44619 5.42308V4.03846C8.44619 3.76304 8.33678 3.49891 8.14203 3.30416C7.94728 3.10941 7.68315 3 7.40773 3H7.06158C6.96977 3 6.88173 3.03647 6.81681 3.10139C6.75189 3.1663 6.71542 3.25435 6.71542 3.34615C6.71542 3.43796 6.75189 3.52601 6.81681 3.59092C6.88173 3.65584 6.96977 3.69231 7.06158 3.69231H7.40773C7.49954 3.69231 7.58758 3.72878 7.6525 3.79369C7.71741 3.85861 7.75388 3.94666 7.75388 4.03846V5.42308C7.75388 5.65036 7.70912 5.87543 7.62214 6.08541C7.53516 6.2954 7.40767 6.4862 7.24695 6.64692C7.08624 6.80763 6.89544 6.93512 6.68545 7.0221C6.47546 7.10908 6.2504 7.15385 6.02311 7.15385ZM10.177 8.53846C9.99335 8.53846 9.81726 8.46552 9.68743 8.33569C9.55759 8.20586 9.48465 8.02977 9.48465 7.84615C9.48465 7.66254 9.55759 7.48645 9.68743 7.35662C9.81726 7.22679 9.99335 7.15385 10.177 7.15385C10.3606 7.15385 10.5367 7.22679 10.6665 7.35662C10.7963 7.48645 10.8693 7.66254 10.8693 7.84615C10.8693 8.02977 10.7963 8.20586 10.6665 8.33569C10.5367 8.46552 10.3606 8.53846 10.177 8.53846Z" fill="white"/>
</svg>
