<svg width="16" height="26" viewBox="0 0 16 26" fill="none" xmlns="http://www.w3.org/2000/svg">
<path d="M1.15502 1.15773C0.947461 1.36487 0.782789 1.6109 0.670433 1.88176C0.558078 2.15262 0.500244 2.44298 0.500244 2.73621C0.500244 3.02945 0.558078 3.31981 0.670433 3.59066C0.782789 3.86152 0.947461 4.10756 1.15502 4.3147L9.84229 13.002L1.15502 21.6892C0.736382 22.1078 0.501192 22.6756 0.501192 23.2677C0.501192 23.8597 0.736382 24.4275 1.15502 24.8462C1.57366 25.2648 2.14146 25.5 2.73351 25.5C3.32555 25.5 3.89335 25.2648 4.31199 24.8462L14.5889 14.5692C14.7965 14.3621 14.9612 14.1161 15.0735 13.8452C15.1859 13.5743 15.2437 13.284 15.2437 12.9908C15.2437 12.6975 15.1859 12.4072 15.0735 12.1363C14.9612 11.8654 14.7965 11.6194 14.5889 11.4123L4.31199 1.13534C3.46118 0.284525 2.02823 0.284525 1.15502 1.15773Z" fill="#808080"/>
</svg>
