<svg width="512" height="512" viewBox="0 0 512 512" fill="none" xmlns="http://www.w3.org/2000/svg">
<g clip-path="url(#clip0_365_322)">
<circle cx="256" cy="256" r="256" fill="white"/>
<path d="M256 512C114.611 512 0 397.389 0 256C0 114.611 114.611 0 256 0C397.389 0 512 114.611 512 256C512 397.389 397.389 512 256 512ZM128 256C128 289.948 141.486 322.505 165.49 346.51C189.495 370.514 222.052 384 256 384C289.948 384 322.505 370.514 346.51 346.51C370.514 322.505 384 289.948 384 256H332.8C332.8 276.369 324.709 295.903 310.306 310.306C295.903 324.709 276.369 332.8 256 332.8C235.631 332.8 216.097 324.709 201.694 310.306C187.291 295.903 179.2 276.369 179.2 256H128Z" fill="#42AB01"/>
</g>
<defs>
<clipPath id="clip0_365_322">
<rect width="512" height="512" fill="white"/>
</clipPath>
</defs>
</svg>
