<svg width="75" height="75" viewBox="0 0 75 75" fill="none" xmlns="http://www.w3.org/2000/svg">
<rect width="75" height="75" rx="10" fill="#42AB01"/>
<path d="M30.1154 35.7692C27.8202 35.7692 25.6191 34.8575 23.9962 33.2346C22.3733 31.6117 21.4615 29.4105 21.4615 27.1154V20.1923C21.4615 19.7333 21.6439 19.2931 21.9684 18.9685C22.293 18.6439 22.7333 18.4615 23.1923 18.4615H24.923C25.3821 18.4615 25.8223 18.2792 26.1469 17.9546C26.4715 17.63 26.6538 17.1898 26.6538 16.7308C26.6538 16.2717 26.4715 15.8315 26.1469 15.5069C25.8223 15.1823 25.3821 15 24.923 15H23.1923C21.8152 15 20.4945 15.547 19.5208 16.5208C18.547 17.4945 18 18.8152 18 20.1923V27.1154C18.0022 29.0707 18.479 30.9963 19.3894 32.7267C20.2999 34.4571 21.6167 35.9407 23.2269 37.05C24.7739 38.4139 26.0285 40.0771 26.915 41.9393C27.8014 43.8014 28.3014 45.8239 28.3846 47.8846C28.3846 51.0978 29.661 54.1794 31.9331 56.4515C34.2052 58.7236 37.2868 60 40.5 60C43.7132 60 46.7948 58.7236 49.0669 56.4515C51.3389 54.1794 52.6154 51.0978 52.6154 47.8846V45.9115C54.2469 45.4903 55.6688 44.4885 56.6145 43.0938C57.5602 41.6992 57.9648 40.0076 57.7525 38.336C57.5402 36.6644 56.7255 35.1276 55.4612 34.0137C54.1968 32.8998 52.5696 32.2852 50.8846 32.2852C49.1996 32.2852 47.5724 32.8998 46.308 34.0137C45.0437 35.1276 44.229 36.6644 44.0167 38.336C43.8044 40.0076 44.209 41.6992 45.1547 43.0938C46.1004 44.4885 47.5223 45.4903 49.1538 45.9115V47.8846C49.1538 50.1798 48.2421 52.3809 46.6192 54.0038C44.9963 55.6267 42.7951 56.5385 40.5 56.5385C38.2048 56.5385 36.0037 55.6267 34.3808 54.0038C32.7579 52.3809 31.8461 50.1798 31.8461 47.8846C31.9337 45.8214 32.4391 43.7973 33.3316 41.935C34.224 40.0727 35.4851 38.4108 37.0384 37.05C38.6422 35.9368 39.9523 34.4516 40.8566 32.7214C41.7609 30.9912 42.2324 29.0676 42.2307 27.1154V20.1923C42.2307 18.8152 41.6837 17.4945 40.71 16.5208C39.7362 15.547 38.4155 15 37.0384 15H35.3077C34.8486 15 34.4084 15.1823 34.0838 15.5069C33.7592 15.8315 33.5769 16.2717 33.5769 16.7308C33.5769 17.1898 33.7592 17.63 34.0838 17.9546C34.4084 18.2792 34.8486 18.4615 35.3077 18.4615H37.0384C37.4975 18.4615 37.9377 18.6439 38.2623 18.9685C38.5869 19.2931 38.7692 19.7333 38.7692 20.1923V27.1154C38.7692 28.2518 38.5454 29.3771 38.1105 30.4271C37.6756 31.477 37.0381 32.431 36.2346 33.2346C35.431 34.0382 34.477 34.6756 33.427 35.1105C32.3771 35.5454 31.2518 35.7692 30.1154 35.7692ZM50.8846 42.6923C49.9665 42.6923 49.0861 42.3276 48.4369 41.6784C47.7878 41.0293 47.4231 40.1488 47.4231 39.2308C47.4231 38.3127 47.7878 37.4323 48.4369 36.7831C49.0861 36.1339 49.9665 35.7692 50.8846 35.7692C51.8027 35.7692 52.6831 36.1339 53.3323 36.7831C53.9814 37.4323 54.3461 38.3127 54.3461 39.2308C54.3461 40.1488 53.9814 41.0293 53.3323 41.6784C52.6831 42.3276 51.8027 42.6923 50.8846 42.6923Z" fill="white"/>
</svg>
