<svg width="75" height="75" viewBox="0 0 75 75" fill="none" xmlns="http://www.w3.org/2000/svg">
<rect width="75" height="75" rx="10" fill="#42AB01"/>
<path d="M32.375 29.625H43.625M38 24V35.25M29 44.25H47M29 51H47M27.2 60H48.8C51.3202 60 52.5804 60 53.543 59.5095C54.3897 59.0781 55.0781 58.3897 55.5095 57.543C56 56.5804 56 55.3202 56 52.8V22.2C56 19.6798 56 18.4196 55.5095 17.457C55.0781 16.6103 54.3897 15.9219 53.543 15.4905C52.5804 15 51.3202 15 48.8 15H27.2C24.6798 15 23.4196 15 22.457 15.4905C21.6103 15.9219 20.9219 16.6103 20.4905 17.457C20 18.4196 20 19.6798 20 22.2V52.8C20 55.3202 20 56.5804 20.4905 57.543C20.9219 58.3897 21.6103 59.0781 22.457 59.5095C23.4196 60 24.6798 60 27.2 60Z" stroke="white" stroke-width="3" stroke-linecap="round"/>
</svg>
