<svg width="40" height="40" viewBox="0 0 40 40" fill="none" xmlns="http://www.w3.org/2000/svg">
<rect width="40" height="40" rx="5" fill="#42AB01"/>
<path d="M24.5098 26.336H19.3978L23.9338 22.232C25.1818 21.104 25.8298 19.52 25.8298 17.96C25.8298 16.592 25.3498 15.176 24.3418 14.096C23.2138 12.848 21.6298 12.2 20.0698 12.2C18.7018 12.2 17.2858 12.68 16.2058 13.688L15.4618 14.36C14.9098 14.864 14.8858 15.68 15.3658 16.232C15.8698 16.784 16.6858 16.832 17.2378 16.328L17.9818 15.656C18.5818 15.128 19.3258 14.864 20.0698 14.864C20.9098 14.864 21.7498 15.176 22.3738 15.872C22.9018 16.472 23.1658 17.192 23.1658 17.96C23.1658 18.824 22.8538 19.64 22.1578 20.264L15.0538 26.696C14.5258 27.2 14.4778 28.016 14.9818 28.568C15.2218 28.856 15.6058 29 15.9658 29H15.9898C16.0138 29 16.0138 29 16.0138 29H24.5098C25.2538 29 25.8298 28.424 25.8298 27.68C25.8298 26.936 25.2538 26.336 24.5098 26.336Z" fill="white"/>
</svg>
