<svg width="40" height="40" viewBox="0 0 40 40" fill="none" xmlns="http://www.w3.org/2000/svg">
<rect width="40" height="40" rx="5" fill="#42AB01"/>
<path d="M21.6518 17.624L24.6758 14.504C24.7718 14.408 24.8438 14.288 24.9158 14.168C25.0118 13.976 25.0838 13.76 25.0838 13.52C25.0838 12.776 24.4838 12.176 23.7158 12.176H16.6358C15.8918 12.176 15.2918 12.776 15.2918 13.52C15.2918 14.288 15.8918 14.888 16.6358 14.888H20.5238L18.0758 17.384C17.5718 17.936 17.5718 18.776 18.1238 19.304C18.1238 19.328 18.1238 19.328 18.1478 19.328C18.3878 19.616 18.7478 19.784 19.1318 19.76C19.9718 19.784 20.7878 20.072 21.4118 20.72C22.0598 21.344 22.3718 22.16 22.3718 23C22.3718 23.84 22.0598 24.656 21.4118 25.304C20.7638 25.928 19.9478 26.24 19.1078 26.24C18.2678 26.24 17.4518 25.928 16.8278 25.304C16.2998 24.776 15.4358 24.776 14.9078 25.304C14.3798 25.832 14.3798 26.696 14.9078 27.224C16.0598 28.376 17.5958 28.976 19.1078 28.976C20.6438 28.976 22.1798 28.376 23.3318 27.224C24.5078 26.048 25.0838 24.512 25.0838 23C25.0838 21.488 24.5078 19.952 23.3318 18.8C22.8518 18.296 22.2758 17.912 21.6518 17.624Z" fill="white"/>
</svg>
