<svg width="40" height="40" viewBox="0 0 40 40" fill="none" xmlns="http://www.w3.org/2000/svg">
<rect width="40" height="40" rx="5" fill="#42AB01"/>
<path d="M23.0325 13.448C22.9845 13.4 22.9845 13.352 22.9845 13.28C22.9845 13.256 22.9605 13.208 22.9605 13.16C22.9365 13.136 22.9365 13.088 22.9125 13.04C22.9125 12.992 22.8885 12.968 22.8645 12.92C22.8645 12.896 22.8405 12.872 22.8405 12.848L22.8165 12.8C22.7925 12.776 22.7445 12.728 22.7205 12.704C22.6965 12.656 22.6725 12.632 22.6485 12.608C22.6245 12.584 22.6005 12.536 22.5525 12.512C22.5285 12.488 22.4805 12.464 22.4565 12.44C22.4085 12.416 22.3845 12.392 22.3605 12.368C22.3125 12.368 22.2885 12.344 22.2165 12.296C22.1925 12.272 22.1445 12.272 22.1205 12.272C22.0725 12.248 22.0485 12.224 21.9765 12.224C21.9525 12.224 21.9045 12.224 21.8805 12.2C21.8325 12.2 21.7845 12.2 21.7125 12.2H21.6885C21.6645 12.2 21.6405 12.2 21.6165 12.2C21.5685 12.2 21.4965 12.2 21.4485 12.224C21.4245 12.224 21.3765 12.224 21.3525 12.248C21.3045 12.248 21.2565 12.272 21.2085 12.272C21.1605 12.296 21.1365 12.344 21.0885 12.344C21.0645 12.368 21.0165 12.368 20.9925 12.392L18.0405 14.144C17.4165 14.504 17.2005 15.344 17.6085 15.944C17.8485 16.376 18.2805 16.616 18.7365 16.616C18.9525 16.616 19.1925 16.568 19.4085 16.424L20.3685 15.872V27.68C20.3685 28.424 20.9445 29 21.6885 29C22.4085 29 23.0325 28.424 23.0325 27.68V13.52C23.0325 13.496 23.0325 13.472 23.0325 13.448Z" fill="white"/>
</svg>
